<svg width="22" height="17" viewBox="0 0 22 17" fill="none" xmlns="http://www.w3.org/2000/svg">
<g id="Shopping cart">
<path id="Vector" d="M21.286 6.79982V7.39109C21.286 7.88093 20.889 8.27801 20.3991 8.27801H20.1035L19.1385 15.0329C19.0137 15.9068 18.2652 16.5559 17.3825 16.5559H3.90355C3.02081 16.5559 2.2724 15.9068 2.14753 15.0329L1.18256 8.27801H0.886919C0.397081 8.27801 0 7.88093 0 7.39109V6.79982C0 6.30998 0.397081 5.9129 0.886919 5.9129H3.3755L7.32155 0.487134C7.7057 -0.0410261 8.44524 -0.157841 8.97347 0.226306C9.50167 0.610453 9.61845 1.35003 9.2343 1.87823L6.29997 5.9129H14.9861L12.0517 1.87819C11.6676 1.35003 11.7844 0.610416 12.3126 0.226269C12.8407 -0.157878 13.5804 -0.0411 13.9645 0.487097L17.9105 5.9129H20.3991C20.889 5.9129 21.286 6.30998 21.286 6.79982ZM11.5299 13.3039V9.16493C11.5299 8.67509 11.1329 8.27801 10.643 8.27801C10.1532 8.27801 9.75611 8.67509 9.75611 9.16493V13.3039C9.75611 13.7937 10.1532 14.1908 10.643 14.1908C11.1329 14.1908 11.5299 13.7937 11.5299 13.3039ZM15.6689 13.3039V9.16493C15.6689 8.67509 15.2718 8.27801 14.782 8.27801C14.2921 8.27801 13.8951 8.67509 13.8951 9.16493V13.3039C13.8951 13.7937 14.2921 14.1908 14.782 14.1908C15.2718 14.1908 15.6689 13.7937 15.6689 13.3039ZM7.39099 13.3039V9.16493C7.39099 8.67509 6.99391 8.27801 6.50407 8.27801C6.01423 8.27801 5.61715 8.67509 5.61715 9.16493V13.3039C5.61715 13.7937 6.01423 14.1908 6.50407 14.1908C6.99391 14.1908 7.39099 13.7937 7.39099 13.3039Z" fill="#016F46"/>
</g>
</svg>
